HIERARCHY
ROOT Hips
{
  OFFSET -53.8329 26.6361 -73.3701
  CHANNELS 6 Xposition Yposition Zposition Zrotation Xrotation Yrotation
  JOINT Spine
  {
    OFFSET 0 8 0
    CHANNELS 6 Xposition Yposition Zposition Zrotation Xrotation Yrotation
    JOINT Spine1
    {
      OFFSET 0 8 0
      CHANNELS 6 Xposition Yposition Zposition Zrotation Xrotation Yrotation
      JOINT Spine2
      {
        OFFSET 0 8 0
        CHANNELS 6 Xposition Yposition Zposition Zrotation Xrotation Yrotation
        JOINT Spine3
        {
          OFFSET 0 8 0
          CHANNELS 6 Xposition Yposition Zposition Zrotation Xrotation Yrotation
          JOINT Neck
          {
            OFFSET -0.00588139 17 0.00311416
            CHANNELS 6 Xposition Yposition Zposition Zrotation Xrotation Yrotation
            JOINT Head
            {
              OFFSET 0 10.8 0
              CHANNELS 6 Xposition Yposition Zposition Zrotation Xrotation Yrotation
              End Site
              {
                OFFSET 0 20.25 0
              }
            }
          }
          JOINT LeftShoulder
          {
            OFFSET 4.99412 17.0017 0.00346975
            CHANNELS 6 Xposition Yposition Zposition Zrotation Xrotation Yrotation
            JOINT LeftShoulder2
            {
              OFFSET 6.45 0 0
              CHANNELS 6 Xposition Yposition Zposition Zrotation Xrotation Yrotation
              JOINT LeftArm
              {
                OFFSET 6.44999 0.0105085 -0.000919995
                CHANNELS 6 Xposition Yposition Zposition Zrotation Xrotation Yrotation
                JOINT LeftForeArm
                {
                  OFFSET 0 -32.4 -2.00001
                  CHANNELS 6 Xposition Yposition Zposition Zrotation Xrotation Yrotation
                  JOINT LeftHand
                  {
                    OFFSET 0 -25.65 2
                    CHANNELS 6 Xposition Yposition Zposition Zrotation Xrotation Yrotation
                    JOINT LeftHandThumb1
                    {
                      OFFSET -0.499991 -1.5 2.65
                      CHANNELS 6 Xposition Yposition Zposition Zrotation Xrotation Yrotation
                      JOINT LeftHandThumb2
                      {
                        OFFSET -1.44999e-05 -3.8 3.7
                        CHANNELS 6 Xposition Yposition Zposition Zrotation Xrotation Yrotation
                        JOINT LeftHandThumb3
                        {
                          OFFSET 0 -3 2.7
                          CHANNELS 6 Xposition Yposition Zposition Zrotation Xrotation Yrotation
                          End Site
                          {
                            OFFSET 0 -2.3 1.8
                          }
                        }
                      }
                    }
                    JOINT LeftHandIndex
                    {
                      OFFSET 0 -1.9 1.6
                      CHANNELS 6 Xposition Yposition Zposition Zrotation Xrotation Yrotation
                      JOINT LeftHandIndex1
                      {
                        OFFSET -1.43521e-05 -8.3 1.9
                        CHANNELS 6 Xposition Yposition Zposition Zrotation Xrotation Yrotation
                        JOINT LeftHandIndex2
                        {
                          OFFSET 1.24489e-05 -4.5 0
                          CHANNELS 6 Xposition Yposition Zposition Zrotation Xrotation Yrotation
                          JOINT LeftHandIndex3
                          {
                            OFFSET -1.19841e-05 -3.4 0
                            CHANNELS 6 Xposition Yposition Zposition Zrotation Xrotation Yrotation
                            End Site
                            {
                              OFFSET 0 -2.6 0
                            }
                          }
                        }
                      }
                    }
                    JOINT LeftHandMiddle
                    {
                      OFFSET -0.249992 -2.2 0.400002
                      CHANNELS 6 Xposition Yposition Zposition Zrotation Xrotation Yrotation
                      JOINT LeftHandMiddle1
                      {
                        OFFSET 0 -8.30001 1
                        CHANNELS 6 Xposition Yposition Zposition Zrotation Xrotation Yrotation
                        JOINT LeftHandMiddle2
                        {
                          OFFSET 0 -4.64999 0
                          CHANNELS 6 Xposition Yposition Zposition Zrotation Xrotation Yrotation
                          JOINT LeftHandMiddle3
                          {
                            OFFSET -1.31479e-05 -3.3 0
                            CHANNELS 6 Xposition Yposition Zposition Zrotation Xrotation Yrotation
                            End Site
                            {
                              OFFSET 0 -2.7 0
                            }
                          }
                        }
                      }
                    }
                    JOINT LeftHandRing
                    {
                      OFFSET -0.499991 -2.15001 -0.799998
                      CHANNELS 6 Xposition Yposition Zposition Zrotation Xrotation Yrotation
                      JOINT LeftHandRing1
                      {
                        OFFSET -1.52178e-05 -7.75 -0.199999
                        CHANNELS 6 Xposition Yposition Zposition Zrotation Xrotation Yrotation
                        JOINT LeftHandRing2
                        {
                          OFFSET 0 -3.79999 0
                          CHANNELS 6 Xposition Yposition Zposition Zrotation Xrotation Yrotation
                          JOINT LeftHandRing3
                          {
                            OFFSET 0 -3.4 0
                            CHANNELS 6 Xposition Yposition Zposition Zrotation Xrotation Yrotation
                            End Site
                            {
                              OFFSET 0 -2.6 0
                            }
                          }
                        }
                      }
                    }
                    JOINT LeftHandPinky
                    {
                      OFFSET -0.74999 -1.75 -1.85
                      CHANNELS 6 Xposition Yposition Zposition Zrotation Xrotation Yrotation
                      JOINT LeftHandPinky1
                      {
                        OFFSET 0 -7.15001 -0.999997
                        CHANNELS 6 Xposition Yposition Zposition Zrotation Xrotation Yrotation
                        JOINT LeftHandPinky2
                        {
                          OFFSET 0 -3 0
                          CHANNELS 6 Xposition Yposition Zposition Zrotation Xrotation Yrotation
                          JOINT LeftHandPinky3
                          {
                            OFFSET 0 -2.35 0
                            CHANNELS 6 Xposition Yposition Zposition Zrotation Xrotation Yrotation
                            End Site
                            {
                              OFFSET 0 -2.1 0
                            }
                          }
                        }
                      }
                    }
                  }
                }
              }
            }
          }
          JOINT RightShoulder
          {
            OFFSET -5.00588 16.9983 0.00275925
            CHANNELS 6 Xposition Yposition Zposition Zrotation Xrotation Yrotation
            JOINT RightShoulder2
            {
              OFFSET -6.45 0 0
              CHANNELS 6 Xposition Yposition Zposition Zrotation Xrotation Yrotation
              JOINT RightArm
              {
                OFFSET -6.45 -0.00595556 0
                CHANNELS 6 Xposition Yposition Zposition Zrotation Xrotation Yrotation
                JOINT RightForeArm
                {
                  OFFSET 0 -32.4 -2.00001
                  CHANNELS 6 Xposition Yposition Zposition Zrotation Xrotation Yrotation
                  JOINT RightHand
                  {
                    OFFSET 0 -25.65 2
                    CHANNELS 6 Xposition Yposition Zposition Zrotation Xrotation Yrotation
                    JOINT RightHandThumb1
                    {
                      OFFSET 0.499987 -1.50001 2.65
                      CHANNELS 6 Xposition Yposition Zposition Zrotation Xrotation Yrotation
                      JOINT RightHandThumb2
                      {
                        OFFSET 1.35119e-05 -3.8 3.7
                        CHANNELS 6 Xposition Yposition Zposition Zrotation Xrotation Yrotation
                        JOINT RightHandThumb3
                        {
                          OFFSET 0 -3 2.7
                          CHANNELS 6 Xposition Yposition Zposition Zrotation Xrotation Yrotation
                          End Site
                          {
                            OFFSET 0 -2.30001 1.8
                          }
                        }
                      }
                    }
                    JOINT RightHandIndex
                    {
                      OFFSET 0 -1.9 1.6
                      CHANNELS 6 Xposition Yposition Zposition Zrotation Xrotation Yrotation
                      JOINT RightHandIndex1
                      {
                        OFFSET 1.47196e-05 -8.3 1.9
                        CHANNELS 6 Xposition Yposition Zposition Zrotation Xrotation Yrotation
                        JOINT RightHandIndex2
                        {
                          OFFSET -1.57118e-05 -4.5 0
                          CHANNELS 6 Xposition Yposition Zposition Zrotation Xrotation Yrotation
                          JOINT RightHandIndex3
                          {
                            OFFSET 0 -3.4 0
                            CHANNELS 6 Xposition Yposition Zposition Zrotation Xrotation Yrotation
                            End Site
                            {
                              OFFSET 0 -2.6 0
                            }
                          }
                        }
                      }
                    }
                    JOINT RightHandMiddle
                    {
                      OFFSET 0.249989 -2.2 0.399999
                      CHANNELS 6 Xposition Yposition Zposition Zrotation Xrotation Yrotation
                      JOINT RightHandMiddle1
                      {
                        OFFSET 0 -8.3 1
                        CHANNELS 6 Xposition Yposition Zposition Zrotation Xrotation Yrotation
                        JOINT RightHandMiddle2
                        {
                          OFFSET 0 -4.65 0
                          CHANNELS 6 Xposition Yposition Zposition Zrotation Xrotation Yrotation
                          JOINT RightHandMiddle3
                          {
                            OFFSET 1.06399e-05 -3.3 0
                            CHANNELS 6 Xposition Yposition Zposition Zrotation Xrotation Yrotation
                            End Site
                            {
                              OFFSET 0 -2.7 0
                            }
                          }
                        }
                      }
                    }
                    JOINT RightHandRing
                    {
                      OFFSET 0.499992 -2.15001 -0.8
                      CHANNELS 6 Xposition Yposition Zposition Zrotation Xrotation Yrotation
                      JOINT RightHandRing1
                      {
                        OFFSET 1.12868e-05 -7.75 -0.2
                        CHANNELS 6 Xposition Yposition Zposition Zrotation Xrotation Yrotation
                        JOINT RightHandRing2
                        {
                          OFFSET 0 -3.79999 0
                          CHANNELS 6 Xposition Yposition Zposition Zrotation Xrotation Yrotation
                          JOINT RightHandRing3
                          {
                            OFFSET 0 -3.4 0
                            CHANNELS 6 Xposition Yposition Zposition Zrotation Xrotation Yrotation
                            End Site
                            {
                              OFFSET 0 -2.6 0
                            }
                          }
                        }
                      }
                    }
                    JOINT RightHandPinky
                    {
                      OFFSET 0.749988 -1.75 -1.85
                      CHANNELS 6 Xposition Yposition Zposition Zrotation Xrotation Yrotation
                      JOINT RightHandPinky1
                      {
                        OFFSET 1.15763e-05 -7.15 -1
                        CHANNELS 6 Xposition Yposition Zposition Zrotation Xrotation Yrotation
                        JOINT RightHandPinky2
                        {
                          OFFSET 0 -3 0
                          CHANNELS 6 Xposition Yposition Zposition Zrotation Xrotation Yrotation
                          JOINT RightHandPinky3
                          {
                            OFFSET 0 -2.35 0
                            CHANNELS 6 Xposition Yposition Zposition Zrotation Xrotation Yrotation
                            End Site
                            {
                              OFFSET 0 -2.1 0
                            }
                          }
                        }
                      }
                    }
                  }
                }
              }
            }
          }
        }
      }
    }
  }
  JOINT LeftUpLeg
  {
    OFFSET 8 0 0
    CHANNELS 6 Xposition Yposition Zposition Zrotation Xrotation Yrotation
    JOINT LeftLeg
    {
      OFFSET 0 -45 -0.999996
      CHANNELS 6 Xposition Yposition Zposition Zrotation Xrotation Yrotation
      JOINT LeftFoot
      {
        OFFSET 0 -41 -1.99999
        CHANNELS 6 Xposition Yposition Zposition Zrotation Xrotation Yrotation
        JOINT LeftToeBase
        {
          OFFSET 0 -7.5 12.5
          CHANNELS 6 Xposition Yposition Zposition Zrotation Xrotation Yrotation
          JOINT LeftFootToe
          {
            OFFSET 0 0 4
            CHANNELS 6 Xposition Yposition Zposition Zrotation Xrotation Yrotation
            End Site
            {
              OFFSET 0 0 0
            }
          }
        }
      }
    }
  }
  JOINT RightUpLeg
  {
    OFFSET -8 0 0
    CHANNELS 6 Xposition Yposition Zposition Zrotation Xrotation Yrotation
    JOINT RightLeg
    {
      OFFSET 0 -45 -1
      CHANNELS 6 Xposition Yposition Zposition Zrotation Xrotation Yrotation
      JOINT RightFoot
      {
        OFFSET 0 -41 -2.00001
        CHANNELS 6 Xposition Yposition Zposition Zrotation Xrotation Yrotation
        JOINT RightToeBase
        {
          OFFSET 0 -7.5 12.5
          CHANNELS 6 Xposition Yposition Zposition Zrotation Xrotation Yrotation
          JOINT RightFootToe
          {
            OFFSET 0 0 4
            CHANNELS 6 Xposition Yposition Zposition Zrotation Xrotation Yrotation
            End Site
            {
              OFFSET 0 0 0
            }
          }
        }
      }
    }
  }
}
MOTION
Frames:	3
Frame Time:	0.0111111
-53.7499 26.2616 -74.2609 5.73554 8.68111 56.4292 0 8 -1.42109e-14 -4.29741 10.9421 -15.6341 0 8 0 -5.69725 14.8103 15.0467 -7.10543e-15 8 -1.42109e-14 -0.497827 3.61305 5.99743 0 8 0 0.486944 3.22486 2.2225 0 17 0 3.71392 -3.59217 2.82272 7.10543e-15 10.8 1.42109e-14 8.98994 -8.08771 6.98279 5 17 0 -7.6154 -3.21341 16.51 6.45 -7.10543e-15 1.42109e-14 0.620827 5.3768 -3.38899 6.45 0 -1.42109e-14 34.4326 -72.5432 -25.0289 1.42109e-14 -32.4 -2 -96.964 -54.9443 -68.9257 0 -25.65 2 11.7298 51.5814 -37.5501 -0.5 -1.5 2.65 -5.84889 -10.6945 1.92659 -3.55271e-15 -3.8 3.7 0.0963676 4.89746 -0.0489048 -3.55271e-15 -3 2.7 3.18055e-15 10.1646 -0 0 -1.9 1.6 -3.18055e-15 -3.18055e-15 6.36111e-15 -3.55271e-15 -8.3 1.9 -19.4677 12.6843 2.37979 -7.10543e-15 -4.5 -3.55271e-15 -16.4438 -0.00216571 6.36111e-15 7.10543e-15 -3.4 0 -13.5085 -1.59028e-15 -6.36111e-15 -0.25 -2.2 0.4 -3.18055e-15 -3.18055e-15 6.36111e-15 -3.55271e-15 -8.3 1 -26.7626 10.6742 3.31734 0 -4.65 0 -22.7115 -0.000744036 0.0111155 7.10543e-15 -3.3 0 -17.6287 -0.000582199 0.00116532 -0.5 -2.15 -0.8 -3.18055e-15 -3.18055e-15 6.36111e-15 -7.10543e-15 -7.75 -0.2 -37.2791 9.80382 5.10227 7.10543e-15 -3.8 -3.55271e-15 -24.1259 0.0079163 1.59028e-14 -7.10543e-15 -3.4 -3.55271e-15 -18.5191 3.18055e-15 3.18055e-15 -0.75 -1.75 -1.85 -3.18055e-15 -3.18055e-15 6.36111e-15 -7.10543e-15 -7.15 -1 -47.198 8.09673 6.31277 0 -3 7.10543e-15 -14.6693 -0.00147186 0.00155558 -7.10543e-15 -2.35 0 -12.2692 0 -9.54166e-15 -5 17 -1.42109e-14 9.89497 -8.25316 -5.46672 -6.45 -3.55271e-15 0 3.30994 6.39276 0.869155 -6.45 -3.55271e-15 0 -53.1572 -70.0686 37.7517 -5.32907e-15 -32.4 -2 67.6592 -53.298 43.7714 0 -25.65 2 -40.8258 3.7001 -8.37668 0.5 -1.5 2.65 2.9346 -30.4042 0.865923 -7.10543e-15 -3.8 3.7 0.173804 30.7493 -0.0670074 0 -3 2.7 0.0366404 34.6754 -0.0353406 0 -1.9 1.6 8.82781e-32 7.95139e-16 -6.36111e-15 0 -8.3 1.9 19.5686 29.9299 -5.93635 0 -4.5 7.10543e-15 77.9687 -0.00523252 0.00117604 0 -3.4 0 62.5659 0.0019948 -0.00281372 0.25 -2.2 0.4 8.82781e-32 7.95139e-16 -6.36111e-15 7.10543e-15 -8.3 1 66.0833 19.8745 -16.7335 -7.10543e-15 -4.65 0 75.3769 0.00708732 0.00343426 0 -3.3 0 58.7084 0.0102124 -0.00432687 0.5 -2.15 -0.8 8.82781e-32 7.95139e-16 -6.36111e-15 0 -7.75 -0.2 79.3362 9.92687 -15.6763 -3.55271e-15 -3.8 -7.10543e-15 61.4204 0.00675974 -0.00134645 3.55271e-15 -3.4 0 43.2985 0.00232776 0.00650349 0.75 -1.75 -1.85 8.82781e-32 7.95139e-16 -6.36111e-15 0 -7.15 -1 77.6925 8.50349 -15.5016 -3.55271e-15 -3 0 70.0609 -0.00380589 -0.000743306 0 -2.35 0 51.9554 -0.00384365 0.000374362 8 0 0 114.06 -55.2547 121.183 0 -45 -1 175.475 39.2596 -177.661 0 -41 -2 -1.19402 -31.8207 -32.1487 0 -7.5 12.5 2.42657e-20 2.42657e-20 -0 7.10543e-15 0 4 -2.24876 3.10614 0.0012068 -8 0 -1.42109e-14 -105.571 -75.7688 -91.178 -3.55271e-15 -45 -1 177.792 15.985 178.766 7.10543e-15 -41 -2 3.59985 -19.8613 4.88975 0 -7.5 12.5 2.21204e-15 -52.5273 -5.22788e-15 0 -4.33681e-19 4 0.661551 52.5255 -0.00176623 
-53.7651 26.2468 -74.2408 5.73299 8.65544 56.4713 -1.42109e-14 8 0 -4.35591 10.9053 -15.6772 -7.10543e-15 8 0 -5.69396 14.77 15.0163 0 8 0 -0.479327 3.60929 5.99393 7.10543e-15 8 1.42109e-14 0.498109 3.22461 2.21504 0 17 0 3.69491 -3.5801 2.85466 0 10.8 0 8.94703 -8.05775 7.05441 5 17 -1.42109e-14 -7.50336 -3.10965 16.4938 6.45 -7.10543e-15 1.42109e-14 0.676898 5.40764 -3.38992 6.45 7.10543e-15 0 34.9447 -72.5077 -24.4074 7.10543e-15 -32.4 -2 -97.2811 -54.9395 -69.2003 0 -25.65 2 11.5952 51.5978 -37.3925 -0.5 -1.5 2.65 -5.85299 -10.6936 1.91655 0 -3.8 3.7 0.0963574 4.88558 -0.0489039 0 -3 2.7 4.89117e-15 10.1639 -9.69379e-15 0 -1.9 1.6 -0 -3.18055e-15 -0 3.55271e-15 -8.3 1.9 -19.4785 12.6762 2.38016 -7.10543e-15 -4.5 3.55271e-15 -16.448 -0.00216571 -9.54166e-15 0 -3.4 3.55271e-15 -13.5114 -1.59028e-15 -0 -0.25 -2.2 0.4 -0 -3.18055e-15 -0 0 -8.3 1 -26.7507 10.6647 3.31294 0 -4.65 0 -22.7921 -0.000736679 0.0111155 0 -3.3 0 -17.6796 -0.000582199 0.00116532 -0.5 -2.15 -0.8 -0 -3.18055e-15 -0 3.55271e-15 -7.75 -0.2 -37.2709 9.79204 5.09619 7.10543e-15 -3.8 3.55271e-15 -24.1353 0.0079163 -6.36111e-15 0 -3.4 3.55271e-15 -18.5215 3.18055e-15 -3.18055e-15 -0.75 -1.75 -1.85 -0 -3.18055e-15 -0 -7.10543e-15 -7.15 -1 -47.1736 8.08846 6.30421 0 -3 7.10543e-15 -14.6767 -0.00147186 0.00155558 0 -2.35 0 -12.2745 0 -0 -5 17 -1.42109e-14 9.95465 -8.2248 -5.44329 -6.45 0 1.42109e-14 3.34583 6.4376 0.840868 -6.45 3.55271e-15 0 -54.0768 -69.2639 36.5105 -8.88178e-15 -32.4 -2 69.3194 -53.6638 45.4087 0 -25.65 2 -41.083 3.43646 -8.07151 0.5 -1.5 2.65 3.08536 -30.2718 0.875499 1.42109e-14 -3.8 3.7 0.174016 30.6674 -0.067641 -7.10543e-15 -3 2.7 0.037361 34.6487 -0.0361511 0 -1.9 1.6 -3.18055e-15 3.18055e-15 3.18055e-15 0 -8.3 1.9 19.692 29.937 -5.97063 0 -4.5 0 77.94 -0.00493153 0.00154473 0 -3.4 0 62.521 0.00253203 -0.00258423 0.25 -2.2 0.4 -3.18055e-15 3.18055e-15 3.18055e-15 0 -8.3 1 66.0283 19.8882 -16.7209 7.10543e-15 -4.65 0 75.4154 0.00666701 0.00262068 3.55271e-15 -3.3 0 58.7633 0.00905194 -0.00407229 0.5 -2.15 -0.8 -3.18055e-15 3.18055e-15 3.18055e-15 0 -7.75 -0.2 79.3464 9.91524 -15.671 -3.55271e-15 -3.8 7.10543e-15 61.3759 0.00593752 -0.0029774 -3.55271e-15 -3.4 0 43.2589 0.0022162 0.00624246 0.75 -1.75 -1.85 -3.18055e-15 3.18055e-15 3.18055e-15 0 -7.15 -1 77.7884 8.49545 -15.5379 0 -3 7.10543e-15 69.9442 -0.00484274 -0.000806406 3.55271e-15 -2.35 -7.10543e-15 51.8215 -0.0049185 0.000111984 8 0 0 114.07 -55.171 121.225 0 -45 -1 175.468 39.254 -177.683 1.42109e-14 -41 -2 -1.08718 -31.7717 -32.1063 0 -7.5 12.5 1.21329e-20 0 -3.18055e-15 0 5.42101e-20 4 -2.35172 3.045 0.000479932 -8 3.55271e-15 0 -105.378 -75.7839 -90.9868 0 -45 -1 177.777 15.9618 178.731 -3.55271e-15 -41 -2 3.66104 -19.8757 4.94144 -1.42109e-14 -7.5 12.5 -9.72118e-16 -52.5513 -5.23074e-15 0 4.33681e-19 4 0.622499 52.5491 -0.00183626 
-53.7741 26.2329 -74.2231 5.7345 8.62751 56.4985 7.10543e-15 8 0 -4.41321 10.8661 -15.7119 0 8 0 -5.68914 14.7302 14.9903 -7.10543e-15 8 -1.42109e-14 -0.462549 3.60283 5.98512 0 8 1.42109e-14 0.507959 3.22429 2.20559 -7.10543e-15 17 2.84217e-14 3.67557 -3.56245 2.88979 7.10543e-15 10.8 -1.42109e-14 8.90304 -8.01449 7.13276 5 17 1.42109e-14 -7.38872 -3.00195 16.4819 6.45 -7.10543e-15 0 0.735098 5.43997 -3.39072 6.45 1.06581e-14 0 35.4146 -72.4509 -23.7971 -7.10543e-15 -32.4 -2 -97.578 -54.9302 -69.515 -3.55271e-15 -25.65 2 11.442 51.5969 -37.2117 -0.5 -1.5 2.65 -5.84806 -10.7016 1.89802 3.55271e-15 -3.8 3.7 0.0963577 4.88589 -0.0489039 0 -3 2.7 -5.70191e-16 10.1637 3.23126e-15 3.55271e-15 -1.9 1.6 3.18055e-15 6.36111e-15 6.36111e-15 0 -8.3 1.9 -19.4722 12.6633 2.37964 7.10543e-15 -4.5 0 -16.4483 -0.00216571 -3.18055e-15 0 -3.4 0 -13.5117 1.59028e-15 6.36111e-15 -0.25 -2.2 0.4 3.18055e-15 6.36111e-15 6.36111e-15 0 -8.3 1 -26.7266 10.6582 3.30787 7.10543e-15 -4.65 -3.55271e-15 -22.8452 -0.000729283 0.0111155 -7.10543e-15 -3.3 0 -17.7131 -0.000582199 0.00116532 -0.5 -2.15 -0.8 3.18055e-15 6.36111e-15 6.36111e-15 3.55271e-15 -7.75 -0.2 -37.255 9.78658 5.0911 0 -3.8 -3.55271e-15 -24.129 0.0079163 -3.18055e-15 0 -3.4 -3.55271e-15 -18.5175 -3.18055e-15 -6.36111e-15 -0.75 -1.75 -1.85 3.18055e-15 6.36111e-15 6.36111e-15 0 -7.15 -1 -47.1372 8.08919 6.29747 7.10543e-15 -3 0 -14.6919 -0.00147186 0.00155558 7.10543e-15 -2.35 -7.10543e-15 -12.2853 3.18055e-15 3.18055e-15 -5 17 1.42109e-14 10.0113 -8.18411 -5.42334 -6.45 -3.55271e-15 1.42109e-14 3.37766 6.4853 0.817269 -6.45 -3.55271e-15 -1.42109e-14 -54.7091 -68.5392 35.4601 7.10543e-15 -32.4 -2 70.6341 -54.0456 46.7195 0 -25.65 2 -41.349 3.11828 -7.81887 0.5 -1.5 2.65 3.22712 -30.1339 0.862616 7.10543e-15 -3.8 3.7 0.174165 30.5708 -0.0681695 7.10543e-15 -3 2.7 0.0380224 34.624 -0.0369017 -7.10543e-15 -1.9 1.6 3.18055e-15 7.95139e-16 -3.18055e-15 0 -8.3 1.9 19.7038 29.9438 -5.97269 0 -4.5 0 77.9855 -0.00464113 0.0018218 0 -3.4 7.10543e-15 62.5914 0.00294141 -0.00236334 0.25 -2.2 0.4 3.18055e-15 7.95139e-16 -3.18055e-15 0 -8.3 1 65.991 19.9008 -16.7146 0 -4.65 0 75.4387 0.00619302 0.00175887 7.10543e-15 -3.3 0 58.7966 0.00782652 -0.0037547 0.5 -2.15 -0.8 3.18055e-15 7.95139e-16 -3.18055e-15 0 -7.75 -0.2 79.3369 9.92264 -15.6733 3.55271e-15 -3.8 0 61.3547 0.00506794 -0.00469033 3.55271e-15 -3.4 7.10543e-15 43.2402 0.00216007 0.00598456 0.75 -1.75 -1.85 3.18055e-15 7.95139e-16 -3.18055e-15 0 -7.15 -1 77.8813 8.4941 -15.5793 0 -3 0 69.8275 -0.00590171 -0.000868837 3.55271e-15 -2.35 7.10543e-15 51.6879 -0.00600854 -0.000201029 8 7.10543e-15 1.42109e-14 114.059 -55.0877 121.237 0 -45 -1 175.464 39.2422 -177.703 1.42109e-14 -41 -2 -0.991119 -31.7389 -32.0782 0 -7.5 12.5 4.85314e-20 -4.85314e-20 3.18055e-15 0 1.0842e-19 4 -2.44748 2.99116 -0.0002484 -8 0 0 -105.153 -75.7899 -90.7635 3.55271e-15 -45 -1 177.763 15.9399 178.711 0 -41 -2 3.70461 -19.9011 4.9807 7.10543e-15 -7.5 12.5 4.15559e-15 -52.5707 5.23305e-15 0 0 4 0.583049 52.5692 -0.00190158 
